<svg width="199" height="36" viewBox="0 0 199 36" fill="none" xmlns="http://www.w3.org/2000/svg">
<path d="M6.44531 27.4922C5.91406 27.4922 5.38281 27.3984 4.85156 27.2109C4.33594 27.0234 3.83594 26.75 3.35156 26.3906C2.86719 26.0156 2.44531 25.5234 2.08594 24.9141C1.72656 24.3047 1.53125 23.5781 1.5 22.7344V14.2734C1.5 13.8359 1.65625 13.4766 1.96875 13.1953C2.29688 12.8984 2.67969 12.75 3.11719 12.75C4.05469 12.8281 4.5625 13.3359 4.64062 14.2734V22.5469C4.65625 22.9219 4.73438 23.2422 4.875 23.5078C5.01562 23.7578 5.17188 23.9609 5.34375 24.1172C5.51562 24.2578 5.6875 24.3672 5.85938 24.4453C6.04688 24.5078 6.23438 24.5391 6.42188 24.5391C6.60938 24.5391 6.79688 24.5078 6.98438 24.4453C7.17188 24.3672 7.35156 24.2578 7.52344 24.1172C7.69531 23.9609 7.85156 23.7578 7.99219 23.5078C8.13281 23.2422 8.20312 22.9219 8.20312 22.5469V14.2734C8.20312 13.8359 8.35938 13.4766 8.67188 13.1953C9 12.8984 9.38281 12.75 9.82031 12.75C10.7578 12.8281 11.2734 13.3359 11.3672 14.2734V22.5469C11.3828 22.9219 11.4609 23.2344 11.6016 23.4844C11.7422 23.75 11.8984 23.9609 12.0703 24.1172C12.2422 24.2578 12.4141 24.3672 12.5859 24.4453C12.7734 24.5078 12.9609 24.5391 13.1484 24.5391C13.3359 24.5391 13.5234 24.5078 13.7109 24.4453C13.8984 24.3672 14.0781 24.2578 14.25 24.1172C14.4219 23.9609 14.5781 23.7578 14.7188 23.5078C14.8594 23.2422 14.9297 22.9219 14.9297 22.5469V14.2734C14.9297 13.8359 15.0859 13.4766 15.3984 13.1953C15.7266 12.8984 16.1094 12.75 16.5469 12.75C17.4844 12.8281 18 13.3359 18.0938 14.2734V22.7344C18.0938 23.5781 17.9062 24.3047 17.5312 24.9141C17.1719 25.5234 16.75 26.0156 16.2656 26.3906C15.7969 26.75 15.2969 27.0234 14.7656 27.2109C14.25 27.3984 13.7188 27.4922 13.1719 27.4922C12.6406 27.4922 12.1094 27.3984 11.5781 27.2109C11.0625 27.0234 10.5625 26.7422 10.0781 26.3672C9.98438 26.3047 9.89844 26.2344 9.82031 26.1562C9.72656 26.2344 9.64062 26.3047 9.5625 26.3672C9.07812 26.7422 8.57031 27.0234 8.03906 27.2109C7.52344 27.3984 6.99219 27.4922 6.44531 27.4922ZM34.2656 25.7109V20.0625C34.2656 19.6719 34.0625 19.4688 33.6562 19.4531H25.4531C25.1562 19.4688 24.8984 19.6016 24.6797 19.8516C24.4609 20.0859 24.2969 20.3672 24.1875 20.6953C24.0938 21.0078 24.0469 21.3281 24.0469 21.6562C24.0469 21.9688 24.0938 22.2891 24.1875 22.6172C24.2969 22.9297 24.4609 23.2109 24.6797 23.4609C24.8984 23.6953 25.1562 23.8125 25.4531 23.8125H31.4531C31.8906 23.8125 32.2578 23.9688 32.5547 24.2812C32.8672 24.5781 33.0234 24.9453 33.0234 25.3828C33.0234 25.8203 32.8672 26.1875 32.5547 26.4844C32.2578 26.7969 31.8906 26.9531 31.4531 26.9531H25.5469C24.4531 26.9375 23.5469 26.6328 22.8281 26.0391C22.125 25.4297 21.6172 24.75 21.3047 24C21.0078 23.2344 20.8594 22.4453 20.8594 21.6328C20.8594 20.8516 21.0156 20.0859 21.3281 19.3359C21.6406 18.5703 22.1484 17.8906 22.8516 17.2969C23.5547 16.6875 24.5938 16.3594 25.9688 16.3125H35.8125C36.25 16.3125 36.625 16.4609 36.9375 16.7578C37.25 17.0391 37.4141 17.3984 37.4297 17.8359V25.7109C37.4297 26.1484 37.2656 26.5156 36.9375 26.8125C36.625 27.0938 36.25 27.2344 35.8125 27.2344C34.875 27.1562 34.3594 26.6484 34.2656 25.7109ZM40.9453 19.2656C41.2422 18.5156 41.7422 17.8438 42.4453 17.25C43.1641 16.6406 44.0703 16.3281 45.1641 16.3125H53.9766C54.4141 16.3125 54.7812 16.4688 55.0781 16.7812C55.3906 17.0781 55.5469 17.4453 55.5469 17.8828C55.5469 18.3203 55.3906 18.6953 55.0781 19.0078C54.7812 19.3047 54.4141 19.4531 53.9766 19.4531H45.0703C44.7734 19.4531 44.5156 19.5781 44.2969 19.8281C44.0781 20.0625 43.9062 20.3438 43.7812 20.6719C43.6719 21 43.6172 21.3125 43.6172 21.6094V25.7109C43.5234 26.6484 43.0078 27.1562 42.0703 27.2344C41.6328 27.2344 41.25 27.0938 40.9219 26.8125C40.6094 26.5156 40.4531 26.1484 40.4531 25.7109V21.6328H40.4766C40.4766 20.8203 40.6328 20.0312 40.9453 19.2656ZM62.6719 26.9531C61.2969 26.9062 60.2578 26.5859 59.5547 25.9922C58.8516 25.3828 58.3438 24.7031 58.0312 23.9531C57.7188 23.1875 57.5625 22.4141 57.5625 21.6328C57.5625 20.8203 57.7109 20.0391 58.0078 19.2891C58.3203 18.5234 58.8281 17.8438 59.5312 17.25C60.25 16.6406 61.1562 16.3281 62.25 16.3125H71.1562C71.5938 16.3125 71.9609 16.4609 72.2578 16.7578C72.5703 17.0391 72.7266 17.3828 72.7266 17.7891C72.7266 18.2109 72.5703 18.5703 72.2578 18.8672C71.9609 19.1484 71.5938 19.2891 71.1562 19.2891H62.3906C62.0469 19.2891 61.7422 19.4062 61.4766 19.6406C61.2266 19.875 61.0391 20.1797 60.9141 20.5547C60.8047 20.9297 60.75 21.2969 60.75 21.6562C60.75 22.0469 60.8047 22.4297 60.9141 22.8047C61.0391 23.1797 61.2266 23.4844 61.4766 23.7188C61.7422 23.9375 62.0469 24.0547 62.3906 24.0703H71.1562C71.5938 24.0703 71.9609 24.2109 72.2578 24.4922C72.5703 24.7734 72.7266 25.1094 72.7266 25.5C72.7266 25.9062 72.5703 26.25 72.2578 26.5312C71.9609 26.8125 71.5938 26.9531 71.1562 26.9531H62.6719ZM72.4453 21.5859C72.4453 21.8828 72.3125 22.1406 72.0469 22.3594C71.8125 22.5625 71.5156 22.6641 71.1562 22.6641H63.4922C63.1328 22.6641 62.8281 22.5625 62.5781 22.3594C62.3281 22.1406 62.2031 21.8828 62.2031 21.5859C62.2031 21.3047 62.3281 21.0547 62.5781 20.8359C62.8281 20.6328 63.1328 20.5312 63.4922 20.5312H71.1562C71.5156 20.5312 71.8203 20.6406 72.0703 20.8594C72.3203 21.0625 72.4453 21.3047 72.4453 21.5859Z" fill="black"/>
<path d="M79.8984 25.7109C79.1797 24.6328 78.4609 23.2188 77.7422 21.4688L75.1641 14.8125C75.0859 14.6406 75.0391 14.4531 75.0234 14.25C74.9922 13.8125 75.1172 13.4375 75.3984 13.125C75.6953 12.8125 76.0703 12.6562 76.5234 12.6562C77.0078 12.6562 77.3672 12.7656 77.6016 12.9844C77.8516 13.1875 78.0547 13.4531 78.2109 13.7812L80.4375 19.875C80.6875 20.5156 80.9297 21.125 81.1641 21.7031C81.4141 22.2656 81.6875 22.7812 81.9844 23.25C82.2812 23.7188 82.6172 23.9688 82.9922 24C83.3516 23.9688 83.6719 23.7188 83.9531 23.25C84.2656 22.7812 84.5391 22.2656 84.7734 21.7031C85.0234 21.125 85.2734 20.5156 85.5234 19.875L87.7031 13.7812C87.8594 13.4531 88.0547 13.1875 88.2891 12.9844C88.5391 12.7656 88.9219 12.6562 89.4375 12.6562C89.8906 12.6562 90.2578 12.8125 90.5391 13.125C90.8359 13.4375 90.9688 13.8125 90.9375 14.25C90.9219 14.4531 90.875 14.6406 90.7969 14.8125L88.2188 21.4688C87.5 23.25 86.7812 24.6719 86.0625 25.7344C85.3594 26.7812 84.3359 27.3125 82.9922 27.3281C81.6328 27.3125 80.6016 26.7734 79.8984 25.7109ZM94.9688 16.0781C95.3906 16.0938 95.75 16.25 96.0469 16.5469C96.3438 16.8281 96.5 17.1797 96.5156 17.6016V25.7109C96.4219 26.6484 95.9062 27.1562 94.9688 27.2344C94.5312 27.2344 94.1484 27.0938 93.8203 26.8125C93.5078 26.5156 93.3516 26.1484 93.3516 25.7109V17.6016C93.3672 17.1641 93.5312 16.8047 93.8438 16.5234C94.1562 16.2266 94.5312 16.0781 94.9688 16.0781ZM93 13.0312C93 12.5938 93.1875 12.2188 93.5625 11.9062C93.9375 11.5938 94.3906 11.4375 94.9219 11.4375C95.4531 11.4375 95.9062 11.5938 96.2812 11.9062C96.6562 12.2188 96.8438 12.5938 96.8438 13.0312C96.8438 13.4844 96.6562 13.8672 96.2812 14.1797C95.9062 14.4922 95.4531 14.6484 94.9219 14.6484C94.3906 14.6484 93.9375 14.4922 93.5625 14.1797C93.1875 13.8672 93 13.4844 93 13.0312ZM104.18 26.9531C102.805 26.9062 101.766 26.5859 101.062 25.9922C100.359 25.3828 99.8516 24.7031 99.5391 23.9531C99.2266 23.1875 99.0703 22.4141 99.0703 21.6328C99.0703 20.8203 99.2188 20.0391 99.5156 19.2891C99.8281 18.5234 100.336 17.8438 101.039 17.25C101.758 16.6406 102.664 16.3281 103.758 16.3125H112.664C113.102 16.3125 113.469 16.4609 113.766 16.7578C114.078 17.0391 114.234 17.3828 114.234 17.7891C114.234 18.2109 114.078 18.5703 113.766 18.8672C113.469 19.1484 113.102 19.2891 112.664 19.2891H103.898C103.555 19.2891 103.25 19.4062 102.984 19.6406C102.734 19.875 102.547 20.1797 102.422 20.5547C102.312 20.9297 102.258 21.2969 102.258 21.6562C102.258 22.0469 102.312 22.4297 102.422 22.8047C102.547 23.1797 102.734 23.4844 102.984 23.7188C103.25 23.9375 103.555 24.0547 103.898 24.0703H112.664C113.102 24.0703 113.469 24.2109 113.766 24.4922C114.078 24.7734 114.234 25.1094 114.234 25.5C114.234 25.9062 114.078 26.25 113.766 26.5312C113.469 26.8125 113.102 26.9531 112.664 26.9531H104.18ZM113.953 21.5859C113.953 21.8828 113.82 22.1406 113.555 22.3594C113.32 22.5625 113.023 22.6641 112.664 22.6641H105C104.641 22.6641 104.336 22.5625 104.086 22.3594C103.836 22.1406 103.711 21.8828 103.711 21.5859C103.711 21.3047 103.836 21.0547 104.086 20.8359C104.336 20.6328 104.641 20.5312 105 20.5312H112.664C113.023 20.5312 113.328 20.6406 113.578 20.8594C113.828 21.0625 113.953 21.3047 113.953 21.5859ZM121.898 27.2578C121.367 27.2578 120.836 27.1641 120.305 26.9766C119.789 26.7891 119.289 26.5156 118.805 26.1562C118.32 25.7812 117.898 25.2891 117.539 24.6797C117.18 24.0703 116.984 23.3438 116.953 22.5V17.5078C116.953 17.0703 117.109 16.7109 117.422 16.4297C117.75 16.1328 118.133 15.9844 118.57 15.9844C119.508 16.0625 120.016 16.5703 120.094 17.5078V22.3125C120.109 22.6875 120.188 23.0078 120.328 23.2734C120.469 23.5234 120.625 23.7266 120.797 23.8828C120.969 24.0234 121.141 24.1328 121.312 24.2109C121.5 24.2734 121.688 24.3047 121.875 24.3047C122.062 24.3047 122.25 24.2734 122.438 24.2109C122.625 24.1328 122.805 24.0234 122.977 23.8828C123.148 23.7266 123.305 23.5234 123.445 23.2734C123.586 23.0078 123.656 22.6875 123.656 22.3125V17.5078C123.656 17.0703 123.812 16.7109 124.125 16.4297C124.453 16.1328 124.836 15.9844 125.273 15.9844C126.211 16.0625 126.727 16.5703 126.82 17.5078V22.3125C126.836 22.6875 126.914 23 127.055 23.25C127.195 23.5156 127.352 23.7266 127.523 23.8828C127.695 24.0234 127.867 24.1328 128.039 24.2109C128.227 24.2734 128.414 24.3047 128.602 24.3047C128.789 24.3047 128.977 24.2734 129.164 24.2109C129.352 24.1328 129.531 24.0234 129.703 23.8828C129.875 23.7266 130.031 23.5234 130.172 23.2734C130.312 23.0078 130.383 22.6875 130.383 22.3125V17.5078C130.383 17.0703 130.539 16.7109 130.852 16.4297C131.18 16.1328 131.562 15.9844 132 15.9844C132.938 16.0625 133.453 16.5703 133.547 17.5078V22.5C133.547 23.3438 133.359 24.0703 132.984 24.6797C132.625 25.2891 132.203 25.7812 131.719 26.1562C131.25 26.5156 130.75 26.7891 130.219 26.9766C129.703 27.1641 129.172 27.2578 128.625 27.2578C128.094 27.2578 127.562 27.1641 127.031 26.9766C126.516 26.7891 126.016 26.5078 125.531 26.1328C125.438 26.0703 125.352 26 125.273 25.9219C125.18 26 125.094 26.0703 125.016 26.1328C124.531 26.5078 124.023 26.7891 123.492 26.9766C122.977 27.1641 122.445 27.2578 121.898 27.2578Z" fill="#04B4FC"/>
</svg>
