<svg width="29" height="30" viewBox="0 0 29 30" fill="none" xmlns="http://www.w3.org/2000/svg">
<rect y="0.5" width="29" height="29" rx="14.5" fill="#04B4FC"/>
<g clip-path="url(#clip0_494_5590)">
<path d="M14.5 6.5C12.1933 6.5 11.9033 6.51063 10.9969 6.551C10.0906 6.5935 9.47331 6.73587 8.9325 6.94625C8.36522 7.15962 7.8514 7.49432 7.42694 7.92694C6.99458 8.35161 6.65993 8.86538 6.44625 9.4325C6.23587 9.97225 6.09244 10.5906 6.051 11.4937C6.01063 12.4022 6 12.6912 6 15.0011C6 17.3088 6.01063 17.5978 6.051 18.5041C6.0935 19.4094 6.23587 20.0267 6.44625 20.5675C6.66406 21.1264 6.95413 21.6002 7.42694 22.0731C7.89869 22.5459 8.37256 22.837 8.93144 23.0537C9.47331 23.2641 10.0896 23.4076 10.9948 23.449C11.9022 23.4894 12.1912 23.5 14.5 23.5C16.8088 23.5 17.0968 23.4894 18.0041 23.449C18.9083 23.4065 19.5278 23.2641 20.0686 23.0537C20.6355 22.8403 21.1489 22.5056 21.5731 22.0731C22.0459 21.6002 22.3359 21.1264 22.5537 20.5675C22.7631 20.0267 22.9065 19.4094 22.949 18.5041C22.9894 17.5978 23 17.3088 23 15C23 12.6912 22.9894 12.4022 22.949 11.4948C22.9065 10.5906 22.7631 9.97225 22.5537 9.4325C22.3401 8.86536 22.0054 8.35159 21.5731 7.92694C21.1487 7.49416 20.6349 7.15944 20.0675 6.94625C19.5256 6.73587 18.9073 6.59244 18.0031 6.551C17.0957 6.51063 16.8077 6.5 14.4979 6.5H14.5011H14.5ZM13.7382 8.03212H14.5011C16.7706 8.03212 17.0394 8.03956 17.9351 8.081C18.7638 8.11819 19.2143 8.25738 19.5139 8.37319C19.9102 8.52725 20.1939 8.71213 20.4914 9.00962C20.7889 9.30713 20.9728 9.58975 21.1268 9.98713C21.2437 10.2857 21.3818 10.7362 21.419 11.5649C21.4604 12.4606 21.4689 12.7294 21.4689 14.9979C21.4689 17.2663 21.4604 17.5362 21.419 18.4319C21.3818 19.2606 21.2426 19.7101 21.1268 20.0097C20.9905 20.3788 20.773 20.7125 20.4904 20.9861C20.1929 21.2836 19.9103 21.4674 19.5129 21.6215C19.2154 21.7384 18.7649 21.8765 17.9351 21.9148C17.0394 21.9551 16.7706 21.9647 14.5011 21.9647C12.2316 21.9647 11.9617 21.9551 11.066 21.9148C10.2373 21.8765 9.78781 21.7384 9.48819 21.6215C9.11897 21.4854 8.78495 21.2683 8.51069 20.9861C8.2278 20.712 8.00996 20.378 7.87319 20.0086C7.75738 19.7101 7.61819 19.2596 7.581 18.4308C7.54063 17.5351 7.53212 17.2663 7.53212 14.9957C7.53212 12.7262 7.54063 12.4585 7.581 11.5628C7.61925 10.7341 7.75738 10.2836 7.87425 9.98394C8.02831 9.58763 8.21319 9.30394 8.51069 9.00644C8.80819 8.70894 9.09081 8.52513 9.48819 8.37106C9.78781 8.25419 10.2373 8.11606 11.066 8.07781C11.8501 8.04169 12.154 8.03106 13.7382 8.03V8.03212ZM19.0379 9.44313C18.904 9.44313 18.7714 9.46951 18.6476 9.52077C18.5238 9.57203 18.4114 9.64716 18.3167 9.74188C18.222 9.83659 18.1468 9.94904 18.0956 10.0728C18.0443 10.1965 18.0179 10.3292 18.0179 10.4631C18.0179 10.5971 18.0443 10.7297 18.0956 10.8535C18.1468 10.9772 18.222 11.0897 18.3167 11.1844C18.4114 11.2791 18.5238 11.3542 18.6476 11.4055C18.7714 11.4567 18.904 11.4831 19.0379 11.4831C19.3085 11.4831 19.5679 11.3757 19.7592 11.1844C19.9505 10.9931 20.0579 10.7336 20.0579 10.4631C20.0579 10.1926 19.9505 9.93316 19.7592 9.74188C19.5679 9.55059 19.3085 9.44313 19.0379 9.44313ZM14.5011 10.6353C13.9221 10.6262 13.3471 10.7325 12.8095 10.9478C12.272 11.1631 11.7827 11.4832 11.37 11.8895C10.9574 12.2957 10.6297 12.78 10.406 13.3141C10.1823 13.8482 10.0671 14.4215 10.0671 15.0005C10.0671 15.5796 10.1823 16.1529 10.406 16.687C10.6297 17.2211 10.9574 17.7054 11.37 18.1116C11.7827 18.5179 12.272 18.838 12.8095 19.0533C13.3471 19.2686 13.9221 19.3748 14.5011 19.3658C15.647 19.3479 16.74 18.8802 17.544 18.0635C18.3481 17.2467 18.7988 16.1466 18.7988 15.0005C18.7988 13.8544 18.3481 12.7543 17.544 11.9376C16.74 11.1209 15.647 10.6531 14.5011 10.6353ZM14.5011 12.1663C15.2526 12.1663 15.9734 12.4649 16.5048 12.9963C17.0362 13.5277 17.3348 14.2485 17.3348 15C17.3348 15.7515 17.0362 16.4723 16.5048 17.0037C15.9734 17.5351 15.2526 17.8337 14.5011 17.8337C13.7495 17.8337 13.0288 17.5351 12.4973 17.0037C11.9659 16.4723 11.6674 15.7515 11.6674 15C11.6674 14.2485 11.9659 13.5277 12.4973 12.9963C13.0288 12.4649 13.7495 12.1663 14.5011 12.1663Z" fill="white"/>
</g>
<defs>
<clipPath id="clip0_494_5590">
<rect width="17" height="17" fill="white" transform="translate(6 6.5)"/>
</clipPath>
</defs>
</svg>
