<svg width="160" height="16" viewBox="0 0 160 16" fill="none" xmlns="http://www.w3.org/2000/svg">
<path d="M16.1094 8.76562C16.4062 9.39062 16.5547 10.0234 16.5547 10.6641C16.5547 11.2891 16.3984 11.9141 16.0859 12.5391C15.7734 13.1484 15.2656 13.6953 14.5625 14.1797C13.8594 14.6484 12.9609 14.8828 11.8672 14.8828H11.7266C11.6328 14.8984 11.5391 14.9062 11.4453 14.9062H2.02344C1.60156 14.8906 1.24219 14.7422 0.945312 14.4609C0.664062 14.1641 0.515625 13.8047 0.5 13.3828V2.64844C0.515625 2.22656 0.664062 1.875 0.945312 1.59375C1.24219 1.29688 1.60156 1.14062 2.02344 1.125H10.0859C10.1797 1.125 10.2734 1.13281 10.3672 1.14844H10.5078C11.6016 1.17969 12.5 1.42969 13.2031 1.89844C13.9062 2.36719 14.4141 2.90625 14.7266 3.51562C15.0391 4.10938 15.1953 4.71094 15.1953 5.32031C15.1953 5.94531 15.0469 6.55469 14.75 7.14844C14.7344 7.17969 14.7188 7.20312 14.7031 7.21875C15.3438 7.67188 15.8125 8.1875 16.1094 8.76562ZM12.0078 11.7656C12.3047 11.7812 12.5469 11.7266 12.7344 11.6016C12.9375 11.4766 13.0859 11.3359 13.1797 11.1797C13.2734 11.0078 13.3203 10.8359 13.3203 10.6641C13.3203 10.5547 13.2734 10.4062 13.1797 10.2188C13.0859 10.0156 12.9375 9.85156 12.7344 9.72656C12.5469 9.60156 12.3047 9.53125 12.0078 9.51562H10.5078H3.66406V11.1328C3.66406 11.5547 3.88281 11.7656 4.32031 11.7656H4.50781H12.0078ZM11.3984 6.16406C11.5859 6.05469 11.7266 5.92969 11.8203 5.78906C11.9141 5.63281 11.9609 5.47656 11.9609 5.32031C11.9609 5.16406 11.9141 5.01562 11.8203 4.875C11.7266 4.71875 11.5781 4.58594 11.375 4.47656C11.1875 4.35156 10.9453 4.28125 10.6484 4.26562H4.32031C3.88281 4.26562 3.66406 4.47656 3.66406 4.89844V6.375H10.6484C10.9453 6.35938 11.1953 6.28906 11.3984 6.16406ZM32.0703 13.7109V8.0625C32.0703 7.67188 31.8672 7.46875 31.4609 7.45312H23.2578C22.9609 7.46875 22.7031 7.60156 22.4844 7.85156C22.2656 8.08594 22.1016 8.36719 21.9922 8.69531C21.8984 9.00781 21.8516 9.32812 21.8516 9.65625C21.8516 9.96875 21.8984 10.2891 21.9922 10.6172C22.1016 10.9297 22.2656 11.2109 22.4844 11.4609C22.7031 11.6953 22.9609 11.8125 23.2578 11.8125H29.2578C29.6953 11.8125 30.0625 11.9688 30.3594 12.2812C30.6719 12.5781 30.8281 12.9453 30.8281 13.3828C30.8281 13.8203 30.6719 14.1875 30.3594 14.4844C30.0625 14.7969 29.6953 14.9531 29.2578 14.9531H23.3516C22.2578 14.9375 21.3516 14.6328 20.6328 14.0391C19.9297 13.4297 19.4219 12.75 19.1094 12C18.8125 11.2344 18.6641 10.4453 18.6641 9.63281C18.6641 8.85156 18.8203 8.08594 19.1328 7.33594C19.4453 6.57031 19.9531 5.89062 20.6562 5.29688C21.3594 4.6875 22.3984 4.35938 23.7734 4.3125H33.6172C34.0547 4.3125 34.4297 4.46094 34.7422 4.75781C35.0547 5.03906 35.2188 5.39844 35.2344 5.83594V13.7109C35.2344 14.1484 35.0703 14.5156 34.7422 14.8125C34.4297 15.0938 34.0547 15.2344 33.6172 15.2344C32.6797 15.1562 32.1641 14.6484 32.0703 13.7109ZM43.2266 15.2578C42.6953 15.2578 42.1641 15.1641 41.6328 14.9766C41.1172 14.7891 40.6172 14.5156 40.1328 14.1562C39.6484 13.7812 39.2266 13.2891 38.8672 12.6797C38.5078 12.0703 38.3125 11.3438 38.2812 10.5V5.50781C38.2812 5.07031 38.4375 4.71094 38.75 4.42969C39.0781 4.13281 39.4609 3.98438 39.8984 3.98438C40.8359 4.0625 41.3438 4.57031 41.4219 5.50781V10.3125C41.4375 10.6875 41.5156 11.0078 41.6562 11.2734C41.7969 11.5234 41.9531 11.7266 42.125 11.8828C42.2969 12.0234 42.4688 12.1328 42.6406 12.2109C42.8281 12.2734 43.0156 12.3047 43.2031 12.3047C43.3906 12.3047 43.5781 12.2734 43.7656 12.2109C43.9531 12.1328 44.1328 12.0234 44.3047 11.8828C44.4766 11.7266 44.6328 11.5234 44.7734 11.2734C44.9141 11.0078 44.9844 10.6875 44.9844 10.3125V5.50781C44.9844 5.07031 45.1406 4.71094 45.4531 4.42969C45.7812 4.13281 46.1641 3.98438 46.6016 3.98438C47.5391 4.0625 48.0547 4.57031 48.1484 5.50781V10.3125C48.1641 10.6875 48.2422 11 48.3828 11.25C48.5234 11.5156 48.6797 11.7266 48.8516 11.8828C49.0234 12.0234 49.1953 12.1328 49.3672 12.2109C49.5547 12.2734 49.7422 12.3047 49.9297 12.3047C50.1172 12.3047 50.3047 12.2734 50.4922 12.2109C50.6797 12.1328 50.8594 12.0234 51.0312 11.8828C51.2031 11.7266 51.3594 11.5234 51.5 11.2734C51.6406 11.0078 51.7109 10.6875 51.7109 10.3125V5.50781C51.7109 5.07031 51.8672 4.71094 52.1797 4.42969C52.5078 4.13281 52.8906 3.98438 53.3281 3.98438C54.2656 4.0625 54.7812 4.57031 54.875 5.50781V10.5C54.875 11.3438 54.6875 12.0703 54.3125 12.6797C53.9531 13.2891 53.5312 13.7812 53.0469 14.1562C52.5781 14.5156 52.0781 14.7891 51.5469 14.9766C51.0312 15.1641 50.5 15.2578 49.9531 15.2578C49.4219 15.2578 48.8906 15.1641 48.3594 14.9766C47.8438 14.7891 47.3438 14.5078 46.8594 14.1328C46.7656 14.0703 46.6797 14 46.6016 13.9219C46.5078 14 46.4219 14.0703 46.3438 14.1328C45.8594 14.5078 45.3516 14.7891 44.8203 14.9766C44.3047 15.1641 43.7734 15.2578 43.2266 15.2578ZM71.0703 13.7109V8.0625C71.0703 7.67188 70.8672 7.46875 70.4609 7.45312H62.2578C61.9609 7.46875 61.7031 7.60156 61.4844 7.85156C61.2656 8.08594 61.1016 8.36719 60.9922 8.69531C60.8984 9.00781 60.8516 9.32812 60.8516 9.65625C60.8516 9.96875 60.8984 10.2891 60.9922 10.6172C61.1016 10.9297 61.2656 11.2109 61.4844 11.4609C61.7031 11.6953 61.9609 11.8125 62.2578 11.8125H68.2578C68.6953 11.8125 69.0625 11.9688 69.3594 12.2812C69.6719 12.5781 69.8281 12.9453 69.8281 13.3828C69.8281 13.8203 69.6719 14.1875 69.3594 14.4844C69.0625 14.7969 68.6953 14.9531 68.2578 14.9531H62.3516C61.2578 14.9375 60.3516 14.6328 59.6328 14.0391C58.9297 13.4297 58.4219 12.75 58.1094 12C57.8125 11.2344 57.6641 10.4453 57.6641 9.63281C57.6641 8.85156 57.8203 8.08594 58.1328 7.33594C58.4453 6.57031 58.9531 5.89062 59.6562 5.29688C60.3594 4.6875 61.3984 4.35938 62.7734 4.3125H72.6172C73.0547 4.3125 73.4297 4.46094 73.7422 4.75781C74.0547 5.03906 74.2188 5.39844 74.2344 5.83594V13.7109C74.2344 14.1484 74.0703 14.5156 73.7422 14.8125C73.4297 15.0938 73.0547 15.2344 72.6172 15.2344C71.6797 15.1562 71.1641 14.6484 71.0703 13.7109ZM84.7344 3.96094C85.5469 3.96094 86.3438 4.05469 87.125 4.24219C87.9219 4.42969 88.6797 4.71094 89.3984 5.08594C90.1172 5.44531 90.75 5.92969 91.2969 6.53906C91.8594 7.14844 92.1641 7.875 92.2109 8.71875V9.70312V13.7109C92.1172 14.6484 91.6016 15.1562 90.6641 15.2344C90.2266 15.2344 89.8438 15.0938 89.5156 14.8125C89.2031 14.5156 89.0469 14.1484 89.0469 13.7109V12.6797V9.44531C89.0156 8.96094 88.8281 8.5625 88.4844 8.25C88.1562 7.92188 87.7812 7.66406 87.3594 7.47656C86.9531 7.28906 86.5234 7.14844 86.0703 7.05469C85.6328 6.96094 85.1875 6.91406 84.7344 6.91406C84.2812 6.91406 83.8281 6.96094 83.375 7.05469C82.9375 7.14844 82.5078 7.28906 82.0859 7.47656C81.6797 7.66406 81.3047 7.92188 80.9609 8.25C80.6328 8.5625 80.4531 8.96094 80.4219 9.44531V12.6797V13.7109C80.3438 14.6484 79.8359 15.1562 78.8984 15.2344C78.4609 15.2344 78.0781 15.0938 77.75 14.8125C77.4375 14.5156 77.2812 14.1484 77.2812 13.7109V9.70312V8.71875C77.3281 7.875 77.625 7.14844 78.1719 6.53906C78.7188 5.92969 79.3516 5.44531 80.0703 5.08594C80.7891 4.71094 81.5391 4.42969 82.3203 4.24219C83.1172 4.05469 83.9219 3.96094 84.7344 3.96094Z" fill="black"/>
<path d="M100.461 11.3203C100.461 10.8828 100.609 10.5156 100.906 10.2188C101.219 9.90625 101.594 9.75 102.031 9.75H105.617L105.008 8.01562C104.758 7.375 104.508 6.77344 104.258 6.21094C104.023 5.63281 103.75 5.10938 103.438 4.64062C103.156 4.17188 102.836 3.92188 102.477 3.89062C102.102 3.92188 101.766 4.17188 101.469 4.64062C101.172 5.10938 100.898 5.63281 100.648 6.21094C100.414 6.77344 100.172 7.375 99.9219 8.01562L97.6953 14.1094C97.5391 14.4375 97.3359 14.7109 97.0859 14.9297C96.8516 15.1328 96.4922 15.2344 96.0078 15.2344C95.5547 15.2344 95.1797 15.0781 94.8828 14.7656C94.6016 14.4531 94.4766 14.0781 94.5078 13.6406C94.5234 13.4375 94.5703 13.25 94.6484 13.0781L97.2266 6.42188C97.9453 4.67188 98.6641 3.25781 99.3828 2.17969C100.086 1.11719 101.117 0.578125 102.477 0.5625C103.82 0.578125 104.844 1.11719 105.547 2.17969C106.266 3.22656 106.984 4.64062 107.703 6.42188L110.281 13.0781C110.359 13.25 110.406 13.4375 110.422 13.6406C110.453 14.0781 110.32 14.4531 110.023 14.7656C109.742 15.0781 109.375 15.2344 108.922 15.2344C108.406 15.2344 108.023 15.1328 107.773 14.9297C107.539 14.7109 107.344 14.4375 107.188 14.1094L106.742 12.8906H102.031C101.594 12.8906 101.227 12.7344 100.93 12.4219C100.617 12.125 100.461 11.7578 100.461 11.3203ZM114.383 0.75C114.805 0.765625 115.164 0.921875 115.461 1.21875C115.758 1.5 115.914 1.85156 115.93 2.27344V13.7578C115.836 14.6953 115.32 15.2031 114.383 15.2812C113.945 15.2812 113.562 15.1406 113.234 14.8594C112.922 14.5625 112.766 14.1953 112.766 13.7578V2.27344C112.781 1.83594 112.945 1.47656 113.258 1.19531C113.57 0.898438 113.945 0.75 114.383 0.75ZM120.523 0.75C120.945 0.765625 121.305 0.921875 121.602 1.21875C121.898 1.5 122.055 1.85156 122.07 2.27344V13.7578C121.977 14.6953 121.461 15.2031 120.523 15.2812C120.086 15.2812 119.703 15.1406 119.375 14.8594C119.062 14.5625 118.906 14.1953 118.906 13.7578V2.27344C118.922 1.83594 119.086 1.47656 119.398 1.19531C119.711 0.898438 120.086 0.75 120.523 0.75ZM138.148 13.7109V8.0625C138.148 7.67188 137.945 7.46875 137.539 7.45312H129.336C129.039 7.46875 128.781 7.60156 128.562 7.85156C128.344 8.08594 128.18 8.36719 128.07 8.69531C127.977 9.00781 127.93 9.32812 127.93 9.65625C127.93 9.96875 127.977 10.2891 128.07 10.6172C128.18 10.9297 128.344 11.2109 128.562 11.4609C128.781 11.6953 129.039 11.8125 129.336 11.8125H135.336C135.773 11.8125 136.141 11.9688 136.438 12.2812C136.75 12.5781 136.906 12.9453 136.906 13.3828C136.906 13.8203 136.75 14.1875 136.438 14.4844C136.141 14.7969 135.773 14.9531 135.336 14.9531H129.43C128.336 14.9375 127.43 14.6328 126.711 14.0391C126.008 13.4297 125.5 12.75 125.188 12C124.891 11.2344 124.742 10.4453 124.742 9.63281C124.742 8.85156 124.898 8.08594 125.211 7.33594C125.523 6.57031 126.031 5.89062 126.734 5.29688C127.438 4.6875 128.477 4.35938 129.852 4.3125H139.695C140.133 4.3125 140.508 4.46094 140.82 4.75781C141.133 5.03906 141.297 5.39844 141.312 5.83594V13.7109C141.312 14.1484 141.148 14.5156 140.82 14.8125C140.508 15.0938 140.133 15.2344 139.695 15.2344C138.758 15.1562 138.242 14.6484 138.148 13.7109ZM145.953 0.75C146.375 0.765625 146.734 0.921875 147.031 1.21875C147.328 1.5 147.484 1.85156 147.5 2.27344V4.3125H154.766C155.859 4.32812 156.758 4.64062 157.461 5.25C158.18 5.84375 158.688 6.51562 158.984 7.26562C159.297 8.03125 159.453 8.82031 159.453 9.63281H159.477V13.7109C159.477 14.1484 159.312 14.5156 158.984 14.8125C158.672 15.0938 158.297 15.2344 157.859 15.2344C156.922 15.1562 156.406 14.6484 156.312 13.7109V9.60938C156.312 9.3125 156.25 9 156.125 8.67188C156.016 8.34375 155.852 8.0625 155.633 7.82812C155.414 7.57812 155.156 7.45312 154.859 7.45312H147.5V13.7578C147.406 14.6953 146.891 15.2031 145.953 15.2812C145.516 15.2812 145.133 15.1406 144.805 14.8594C144.492 14.5625 144.336 14.1953 144.336 13.7578V2.27344C144.352 1.83594 144.516 1.47656 144.828 1.19531C145.141 0.898438 145.516 0.75 145.953 0.75Z" fill="#04B4FC"/>
</svg>
