<svg width="14" height="14" viewBox="0 0 14 14" fill="none" xmlns="http://www.w3.org/2000/svg">
<g clip-path="url(#clip0_466_5225)">
<path d="M-0.000244139 3.06171C-0.000244139 2.71361 0.138037 2.37977 0.384178 2.13363C0.63032 1.88749 0.964159 1.74921 1.31226 1.74921H9.18726C9.53535 1.74921 9.86919 1.88749 10.1153 2.13363C10.3615 2.37977 10.4998 2.71361 10.4998 3.06171V4.37421H11.3923C11.5889 4.37438 11.783 4.41874 11.9602 4.50401C12.1374 4.58928 12.2932 4.71327 12.416 4.86683L13.7119 6.48558C13.8983 6.71849 13.9999 7.00798 13.9998 7.30633V9.18671C13.9998 9.5348 13.8615 9.86864 13.6153 10.1148C13.3692 10.3609 13.0354 10.4992 12.6873 10.4992H12.2498C12.2498 10.9633 12.0654 11.4085 11.7372 11.7366C11.409 12.0648 10.9639 12.2492 10.4998 12.2492C10.0356 12.2492 9.59051 12.0648 9.26232 11.7366C8.93413 11.4085 8.74976 10.9633 8.74976 10.4992H4.37476C4.37526 10.7325 4.32912 10.9635 4.23906 11.1786C4.149 11.3938 4.01683 11.5888 3.85032 11.7522C3.68382 11.9155 3.48633 12.044 3.26947 12.1299C3.05262 12.2158 2.82077 12.2575 2.58756 12.2526C2.35435 12.2476 2.12449 12.1961 1.91148 12.101C1.69848 12.0059 1.50663 11.8693 1.34721 11.699C1.1878 11.5287 1.06403 11.3282 0.983198 11.1094C0.902364 10.8906 0.866089 10.6579 0.876506 10.4248C0.620173 10.3346 0.398163 10.1671 0.24112 9.94528C0.0840758 9.7235 -0.000258799 9.45845 -0.000244139 9.18671V3.06171ZM1.13201 9.58571C1.29021 9.3267 1.51308 9.11332 1.77872 8.96652C2.04436 8.81973 2.34362 8.74459 2.64709 8.74847C2.95057 8.75235 3.24781 8.83513 3.5096 8.98868C3.7714 9.14222 3.98873 9.36124 4.14026 9.62421H8.98426C9.13817 9.35845 9.359 9.13762 9.62476 8.98371V3.06171C9.62476 2.94567 9.57866 2.83439 9.49662 2.75235C9.41457 2.6703 9.30329 2.62421 9.18726 2.62421H1.31226C1.19622 2.62421 1.08494 2.6703 1.0029 2.75235C0.920849 2.83439 0.874756 2.94567 0.874756 3.06171V9.18671C0.874687 9.27092 0.898923 9.35336 0.944555 9.42413C0.990187 9.49491 1.05527 9.55101 1.13201 9.58571ZM10.4998 8.74921C10.8069 8.74921 11.1087 8.83008 11.3747 8.98367C11.6408 9.13727 11.8617 9.35818 12.0153 9.62421H12.6873C12.8033 9.62421 12.9146 9.57811 12.9966 9.49607C13.0787 9.41402 13.1248 9.30274 13.1248 9.18671V7.30546C13.1246 7.20617 13.0906 7.1099 13.0285 7.03246L11.7335 5.41371C11.6926 5.36247 11.6407 5.32108 11.5816 5.29261C11.5225 5.26413 11.4578 5.2493 11.3923 5.24921H10.4998V8.74921ZM2.62476 9.62421C2.39269 9.62421 2.17013 9.71639 2.00604 9.88049C1.84194 10.0446 1.74976 10.2671 1.74976 10.4992C1.74976 10.7313 1.84194 10.9538 2.00604 11.1179C2.17013 11.282 2.39269 11.3742 2.62476 11.3742C2.85682 11.3742 3.07938 11.282 3.24347 11.1179C3.40757 10.9538 3.49976 10.7313 3.49976 10.4992C3.49976 10.2671 3.40757 10.0446 3.24347 9.88049C3.07938 9.71639 2.85682 9.62421 2.62476 9.62421ZM10.4998 9.62421C10.2677 9.62421 10.0451 9.71639 9.88104 9.88049C9.71694 10.0446 9.62476 10.2671 9.62476 10.4992C9.62476 10.7313 9.71694 10.9538 9.88104 11.1179C10.0451 11.282 10.2677 11.3742 10.4998 11.3742C10.7318 11.3742 10.9544 11.282 11.1185 11.1179C11.2826 10.9538 11.3748 10.7313 11.3748 10.4992C11.3748 10.2671 11.2826 10.0446 11.1185 9.88049C10.9544 9.71639 10.7318 9.62421 10.4998 9.62421Z" fill="#212529"/>
</g>
<defs>
<clipPath id="clip0_466_5225">
<rect width="14" height="14" fill="white"/>
</clipPath>
</defs>
</svg>
