<svg width="29" height="30" viewBox="0 0 29 30" fill="none" xmlns="http://www.w3.org/2000/svg">
<rect y="0.5" width="29" height="29" rx="14.5" fill="#04B4FC"/>
<path d="M10.9684 23.3125C18.1385 23.3125 22.0608 17.3714 22.0608 12.2283C22.0608 12.0621 22.0608 11.8935 22.0537 11.7272C22.8173 11.1744 23.4764 10.49 24 9.70609C23.2867 10.0206 22.5308 10.2279 21.7568 10.3212C22.5721 9.83391 23.1827 9.06718 23.4751 8.16353C22.7092 8.6173 21.8708 8.93585 20.9968 9.10522C20.4092 8.47943 19.6317 8.06487 18.7846 7.92574C17.9375 7.78662 17.0682 7.93069 16.3113 8.33564C15.5544 8.7406 14.9522 9.38384 14.5979 10.1657C14.2436 10.9476 14.157 11.8245 14.3516 12.6606C12.8016 12.5829 11.2852 12.1802 9.90086 11.4787C8.51651 10.7772 7.29506 9.7926 6.31575 8.58866C5.81859 9.44732 5.66687 10.463 5.89139 11.4295C6.11592 12.3959 6.69985 13.2407 7.52462 13.7923C6.90658 13.7713 6.30212 13.6053 5.76 13.3078V13.3612C5.76107 14.2607 6.07268 15.1323 6.64216 15.8286C7.21165 16.5248 8.00408 17.0031 8.8855 17.1826C8.55094 17.2748 8.20533 17.3207 7.85831 17.3192C7.61367 17.3199 7.36951 17.2972 7.12919 17.2515C7.37831 18.0258 7.86339 18.7028 8.51648 19.1877C9.16957 19.6725 9.95797 19.941 10.7713 19.9554C9.38966 21.0405 7.68304 21.6291 5.92625 21.6262C5.61669 21.6275 5.30735 21.6097 5 21.5728C6.78305 22.7095 8.85379 23.3131 10.9684 23.3125Z" fill="white"/>
</svg>
